<?xml version="1.0" encoding="UTF-8"?>
<!DOCTYPE svg PUBLIC "-//W3C//DTD SVG 1.1//EN" "http://www.w3.org/Graphics/SVG/1.1/DTD/svg11.dtd">
<!-- Creator: CorelDRAW 2019 (64-Bit) -->
<svg xmlns="http://www.w3.org/2000/svg" xml:space="preserve" width="250mm" height="176.512mm" version="1.1" style="shape-rendering:geometricPrecision; text-rendering:geometricPrecision; image-rendering:optimizeQuality; fill-rule:evenodd; clip-rule:evenodd"
viewBox="0 0 26351.76 18605.57"
 xmlns:xlink="http://www.w3.org/1999/xlink"
 xmlns:xodm="http://www.corel.com/coreldraw/odm/2003">
 <defs>
  <style type="text/css">
   <![CDATA[
    .fil23 {fill:#00082F;fill-rule:nonzero}
    .fil10 {fill:#000F44;fill-rule:nonzero}
    .fil8 {fill:#000F5D;fill-rule:nonzero}
    .fil11 {fill:#000F6E;fill-rule:nonzero}
    .fil12 {fill:#0E1F8C;fill-rule:nonzero}
    .fil3 {fill:#4B08BA;fill-rule:nonzero}
    .fil2 {fill:#7E21AC;fill-rule:nonzero}
    .fil0 {fill:#9026C6;fill-rule:nonzero}
    .fil16 {fill:#BF6E0F;fill-rule:nonzero}
    .fil18 {fill:#E24BCF;fill-rule:nonzero}
    .fil24 {fill:#EFEBE1;fill-rule:nonzero}
    .fil13 {fill:#FF9313;fill-rule:nonzero}
    .fil9 {fill:#FF9CFF;fill-rule:nonzero}
    .fil1 {fill:white;fill-rule:nonzero}
    .fil6 {fill:#A32ACA;fill-rule:nonzero;fill-opacity:0.231373}
    .fil5 {fill:#E24BCF;fill-rule:nonzero;fill-opacity:0.231373}
    .fil4 {fill:#A32ACA;fill-rule:nonzero;fill-opacity:0.270588}
    .fil17 {fill:#BF6E0F;fill-rule:nonzero;fill-opacity:0.278431}
    .fil7 {fill:#AFAFAF;fill-rule:nonzero;fill-opacity:0.341176}
    .fil15 {fill:#FF9313;fill-rule:nonzero;fill-opacity:0.349020}
    .fil22 {fill:white;fill-rule:nonzero;fill-opacity:0.400000}
    .fil14 {fill:#FF9313;fill-rule:nonzero;fill-opacity:0.450980}
    .fil21 {fill:#9026C6;fill-rule:nonzero;fill-opacity:0.521569}
    .fil19 {fill:#000F5D;fill-rule:nonzero;fill-opacity:0.560784}
    .fil20 {fill:#E24BCF;fill-rule:nonzero;fill-opacity:0.600000}
   ]]>
  </style>
 </defs>
 <g id="Слой_x0020_1">
  <metadata id="CorelCorpID_0Corel-Layer"/>
  <g id="_2492470700160">
   <path class="fil0" d="M24406.71 15409.39l-985.71 989.85c-28.02,28.14 -73.54,28.24 -101.67,0.22l-1681.77 -1674.75c-28.14,-28.01 -28.24,-73.53 -0.22,-101.65l985.7 -989.85c28.02,-28.14 73.54,-28.24 101.67,-0.22l1681.78 1674.75c28.13,28.01 28.23,73.53 0.22,101.65z"/>
   <polygon class="fil1" points="24128.25,15245.05 23255.46,16121.49 21823.53,14695.54 22696.3,13819.09 "/>
   <path class="fil2" d="M23871.26 15722.19c-38.74,-38.59 -101.42,-38.45 -140.01,0.3 -38.59,38.74 -38.45,101.44 0.3,140.01 38.74,38.58 101.44,38.45 140.01,-0.3 38.58,-38.74 38.45,-101.42 -0.3,-140.01z"/>
   <path class="fil3" d="M23290.74 14654.1c-174.62,-173.88 -457.14,-173.29 -631.03,1.33 -173.89,174.63 -173.3,457.13 1.33,631.02 174.61,173.89 457.13,173.3 631.02,-1.31 173.88,-174.63 173.29,-457.15 -1.32,-631.04z"/>
   <path class="fil1" d="M22746.41 14930.99l269.75 268.62c28.46,28.33 77.04,12.28 83.01,-27.44l44.3 -295.14c4.69,-31.28 -21.05,-58.76 -52.58,-56.09l-314.06 26.52c-41.55,3.51 -59.99,54.08 -30.42,83.52z"/>
   <path class="fil4" d="M9319.23 12020.91c0,0 -4110.23,146.27 -8030.54,1332.6 -2544.93,770.1 -747.04,2110.58 509.33,2178.79 1256.37,68.19 1833.62,394.37 1103.56,901.75 -730.04,507.38 -1884.54,1051 -730.04,1739.6 1154.48,688.58 3531.41,-362.41 5449.9,-833.57 1918.5,-471.14 3242.78,-326.16 3073.01,543.64 -169.79,869.79 1256.37,906.04 3259.76,362.41 2003.4,-543.62 4159.62,-342.26 6356.66,-36.24 2840.94,395.7 5868.79,-833.56 4560.46,-3669.46 -1553.76,-3367.9 -10985.03,-2665.79 -15552.09,-2519.5z"/>
   <path class="fil4" d="M20891.5 13302.3c0,227.93 -659.36,412.73 -1472.76,412.73 -813.37,0 -1472.75,-184.8 -1472.75,-412.73 0,-227.96 659.37,-412.75 1472.75,-412.75 813.39,0 1472.76,184.79 1472.76,412.75z"/>
   <path class="fil4" d="M7673.4 13302.3c0,227.93 -659.38,412.73 -1472.76,412.73 -813.38,0 -1472.77,-184.8 -1472.77,-412.73 0,-227.96 659.38,-412.75 1472.77,-412.75 813.37,0 1472.76,184.79 1472.76,412.75z"/>
   <path class="fil5" d="M23789.67 3235.32c-568.65,677.14 -1638.47,-52.61 -1203.36,-822.38 15.67,-27.7 32.13,-55.51 49.44,-83.41 740.28,-1193.3 602.62,-2700.04 -965.24,-2247.1 -1567.88,452.96 166.88,3649.29 -519.65,3718.73 -686.53,69.45 -1307.42,-197.39 -1910.15,-1184.98 -602.71,-987.59 -2733.05,487.29 -1577.53,1736.21 1155.53,1248.94 2921.36,322.42 2489.89,1544.66 -230,651.53 -843.86,296.49 -1659.74,1265.92 -815.88,969.44 1609.46,2668.41 2259.56,1044.31 650.1,-1624.13 682.44,-2444.59 1228.96,-1596.88 546.49,847.69 1517.06,2776.38 2560.59,1404.14 926.73,-1218.69 -2256.22,-1588.35 -2124.18,-2491.77 146.93,-1005.11 2463.54,216.1 3618.16,-723.13 1154.61,-939.23 -1152.18,-2867.72 -2246.75,-1564.33z"/>
   <path class="fil6" d="M21916.89 9248.42c0,0 -923.16,-11.43 -876.4,818.12 46.78,829.52 1276.1,1009.66 1647.45,342.72 371.36,-666.95 -602.02,-1175.88 -771.05,-1160.84z"/>
   <path class="fil6" d="M14776.08 1495.25c0,0 -923.16,-11.43 -876.38,818.12 46.78,829.52 1276.1,1009.66 1647.45,342.72 371.35,-666.94 -602.02,-1175.89 -771.07,-1160.84z"/>
   <path class="fil5" d="M21879.81 8118.68c0,0 -372.97,-4.62 -354.07,330.51 18.9,335.12 515.54,407.88 665.56,138.46 150.05,-269.44 -243.22,-475.07 -311.49,-468.98z"/>
   <path class="fil5" d="M19218.58 929.52c0,0 -372.95,-4.61 -354.05,330.53 18.9,335.13 515.54,407.91 665.56,138.45 150.05,-269.44 -243.22,-475.06 -311.51,-468.98z"/>
   <path class="fil5" d="M7262.36 1392.45c0,0 100.36,795.35 -474.82,655.43 -575.15,-139.92 -1394.25,-1471.28 -2195.23,-959.88 -800.99,511.4 -543.73,1005.28 315.17,1358.42 858.9,353.12 1700.81,432.56 1031.56,1377.66 -669.27,945.08 -897,1426.03 -408.75,1979.38 493.01,558.75 2254.98,88.39 2275.26,-565.75 20.28,-654.11 -486.21,-880.93 -65.27,-1168.81 420.94,-287.89 341.5,554.03 1219.94,583.06 878.42,29.01 1574.17,-1196.71 992.06,-1380.08 -582.12,-183.37 -1920.11,-5.11 -1637.8,-763.64 224.85,-604.16 1012.34,-1641.03 -44.86,-1954.41 -1092.33,-323.8 -1007.26,838.62 -1007.26,838.62z"/>
   <path class="fil5" d="M3439.23 2520.57c0,0 -961.26,233.86 -691.89,1082.45 269.35,848.58 1593.31,708.34 1801.24,-82.79 207.92,-791.12 -937.89,-1060.28 -1109.35,-999.66z"/>
   <path class="fil5" d="M3100.02 1357.78c0,0 -388.35,94.48 -279.54,437.3 108.82,342.84 643.72,286.16 727.72,-33.46 84,-319.62 -378.91,-428.34 -448.18,-403.85z"/>
   <path class="fil7" d="M18732.8 16399.92l-1025.64 -3331.06 0 -3381.12 -924.21 0 -3381.13 3381.12 -5212.93 0 -1011.05 3331.32c-38.25,176.99 89.57,313.32 231.41,313.32l11091.97 0c141.84,0 261.94,-107.78 231.59,-313.58z"/>
   <path class="fil7" d="M8488.22 12820.38c0,0 -859.77,186.92 -1850.36,-1345.7 -990.59,-1532.62 -2217.93,-635.46 -2230.39,-2710.11 -12.46,-2074.62 -404.96,-2691.41 -1040.43,-3102.59 0,0 1657.22,130.84 2286.47,841.07 629.24,710.24 186.89,2018.56 772.53,2467.13 585.62,448.57 1912.65,149.51 2529.44,3756.76l-467.26 93.44z"/>
   <path class="fil3" d="M8292.92 12690.19c0,0 -859.76,186.9 -1850.37,-1345.72 -990.58,-1532.6 -2217.92,-635.46 -2230.38,-2710.09 -12.45,-2074.62 -404.96,-2691.41 -1040.42,-3102.61 0,0 1657.2,130.83 2286.46,841.07 629.23,710.23 186.9,2018.57 772.52,2467.12 585.64,448.57 1912.66,149.53 2529.44,3756.78l-467.25 93.44z"/>
   <path class="fil7" d="M6021.07 3792.94c0,0 1775.6,388.61 2298.92,1549.37 523.35,1160.74 149.53,1665.38 766.32,2730.73 616.78,1065.34 -327.24,3717.48 -327.24,3717.48 0,0 -2102.51,-1979.28 -1711.38,-3717.48 427.97,-1901.97 188.27,-3308.21 -1026.62,-4280.1z"/>
   <path class="fil0" d="M5825.79 3662.73c0,0 1775.57,388.63 2298.92,1549.37 523.33,1160.75 149.53,1665.4 766.3,2730.75 616.79,1065.34 -327.22,3717.48 -327.22,3717.48 0,0 -2102.53,-1979.28 -1711.4,-3717.48 427.99,-1901.97 188.27,-3308.21 -1026.6,-4280.12z"/>
   <path class="fil7" d="M15169.89 856.24c0,0 1086.06,972.22 993.19,1989.08 -92.9,1016.86 -553.05,1221.58 -543.05,2208.74 10.02,987.17 -1695.92,2465.88 -1695.92,2465.88 0,0 -686.38,-2211.65 272.84,-3270.64 1049.56,-1158.75 1437.34,-2235.03 972.94,-3393.06z"/>
   <path class="fil0" d="M15084.96 688.27c0,0 1086.08,972.22 993.19,1989.08 -92.87,1016.86 -553.04,1221.56 -543.04,2208.73 10,987.17 -1695.93,2465.88 -1695.93,2465.88 0,0 -686.38,-2211.65 272.84,-3270.63 1049.58,-1158.75 1437.36,-2235.04 972.94,-3393.06z"/>
   <path class="fil8" d="M17469.92 12802.33l-9419.99 0 0 -5112.76c0,-107.86 87.46,-195.29 195.31,-195.29l9029.37 0c107.86,0 195.31,87.42 195.31,195.29l0 5112.76z"/>
   <polygon class="fil9" points="8498.52,12353.77 8498.52,7942.85 17021.34,7942.85 17021.34,12353.77 "/>
   <path class="fil10" d="M18305.92 16583.29l-11091.99 0c-141.84,0 -269.64,-136.33 -231.41,-313.3l1011.05 -3331.32 9518.29 0 1025.64 3331.04c30.34,205.8 -89.75,313.58 -231.59,313.58z"/>
   <path class="fil11" d="M18305.92 16446.95l-11091.99 0c-141.84,0 -243.21,-137.23 -201.48,-272.79l1037.47 -3371.83 9419.99 0 1037.48 3371.83c41.7,135.56 -59.64,272.79 -201.48,272.79z"/>
   <polygon class="fil12" points="7993.58,15019.21 8491.69,13400.44 17028.2,13400.44 17526.26,15019.21 "/>
   <polygon class="fil8" points="14143.02,16073.16 11376.84,16073.16 11451.59,15288.17 14068.26,15288.17 "/>
   <path class="fil7" d="M20544.22 3311.77l-101.32 725.44 403.8 56.41c19.06,244.22 88.39,474.28 199.87,678.56l-306.33 266.52 480.79 552.63 307.89 -267.87c188.39,139.7 405.94,241.84 642.85,293.96l0 406.95 732.49 0 0 -406.95c280.09,-61.63 533.68,-192.5 743.08,-373.63l407.1 257.04 391.07 -619.35 -359.12 -226.75c95.36,-212.24 149.68,-446.93 149.68,-694.69 0,-54.59 -3.14,-108.41 -8.18,-161.71l360.69 -97.22 -190.66 -707.25 -397.03 107.03c-137.15,-232.97 -327.72,-429.99 -555.67,-574.53l119.71 -420.21 -704.45 -200.7 -105.94 371.83c-71.05,-9.05 -143.01,-15.32 -216.53,-15.32 -210.47,0 -411.11,40.09 -597.1,110.06l-222.51 -341.68 -613.82 399.71 222.07 340.98c-165.38,168.46 -294.56,371.65 -378.56,597.12l-403.89 -56.41zm2992.65 648.27l0 0c0,551.65 -447.2,998.85 -998.85,998.85 -551.65,0 -998.87,-447.2 -998.87,-998.85 0,-551.65 447.22,-998.85 998.87,-998.85 551.65,0 998.85,447.2 998.85,998.85z"/>
   <path class="fil7" d="M17429.79 6115.09l-105.18 753.01 419.16 58.55c19.8,253.51 91.77,492.3 207.47,704.35l-317.98 276.66 499.08 573.63 319.57 -278.04c195.57,145.01 421.39,251.01 667.28,305.13l0 422.38 760.34 0 0 -422.38c290.73,-63.98 553.96,-199.82 771.34,-387.83l422.58 266.82 405.92 -642.9 -372.77 -235.4c99,-220.3 155.38,-463.89 155.38,-721.07 0,-56.68 -3.26,-112.55 -8.5,-167.86l374.38 -100.9 -197.87 -734.14 -412.14 111.09c-142.35,-241.84 -340.18,-446.31 -576.79,-596.36l124.26 -436.19 -731.23 -208.32 -109.97 385.97c-73.77,-9.41 -148.43,-15.91 -224.76,-15.91 -218.46,0 -426.74,41.61 -619.78,114.25l-230.98 -354.68 -637.14 414.94 230.48 353.91c-171.66,174.86 -305.74,385.81 -392.94,619.84l-419.24 -58.55zm3106.42 672.91l0 0c0,572.62 -464.21,1036.83 -1036.83,1036.83 -572.63,0 -1036.83,-464.2 -1036.83,-1036.83 0,-572.63 464.19,-1036.82 1036.83,-1036.82 572.61,0 1036.83,464.18 1036.83,1036.82z"/>
   <path class="fil8" d="M20414.03 3181.59l-101.33 725.44 403.79 56.39c19.07,244.24 88.42,474.28 199.89,678.58l-306.33 266.52 480.79 552.61 307.87 -267.85c188.42,139.69 405.95,241.81 642.85,293.96l0 406.92 732.49 0 0 -406.92c280.09,-61.65 533.68,-192.5 743.1,-373.65l407.09 257.06 391.08 -619.37 -359.14 -226.75c95.38,-212.24 149.68,-446.9 149.68,-694.69 0,-54.58 -3.12,-108.41 -8.16,-161.68l360.67 -97.24 -190.64 -707.25 -397.05 107.03c-137.12,-232.97 -327.71,-429.98 -555.65,-574.53l119.71 -420.18 -704.47 -200.7 -105.93 371.83c-71.07,-9.05 -143.01,-15.34 -216.54,-15.34 -210.45,0 -411.11,40.09 -597.08,110.08l-222.54 -341.7 -613.8 399.71 222.05 340.99c-165.38,168.46 -294.54,371.67 -378.54,597.11l-403.89 -56.39zm2992.65 648.25l0 0c0,551.67 -447.2,998.87 -998.87,998.87 -551.65,0 -998.85,-447.2 -998.85,-998.87 0,-551.65 447.2,-998.85 998.85,-998.85 551.67,0 998.87,447.2 998.87,998.85z"/>
   <path class="fil3" d="M17299.6 5984.88l-105.19 753.03 419.16 58.55c19.78,253.49 91.76,492.28 207.47,704.35l-317.97 276.66 499.06 573.6 319.59 -278.04c195.57,145.01 421.36,251.03 667.28,305.13l0 422.39 760.34 0 0 -422.39c290.73,-63.98 553.96,-199.81 771.34,-387.83l422.57 266.82 405.93 -642.9 -372.79 -235.37c99.02,-220.3 155.38,-463.91 155.38,-721.07 0,-56.68 -3.25,-112.55 -8.5,-167.86l374.41 -100.92 -197.89 -734.14 -412.12 111.09c-142.37,-241.81 -340.18,-446.31 -576.79,-596.36l124.24 -436.16 -731.23 -208.34 -109.97 385.99c-73.77,-9.41 -148.43,-15.91 -224.76,-15.91 -218.46,0 -426.72,41.59 -619.78,114.24l-230.98 -354.69 -637.14 414.94 230.5 353.94c-171.66,174.86 -305.74,385.79 -392.94,619.81l-419.24 -58.55zm3106.4 672.93l0 0c0,572.62 -464.19,1036.81 -1036.83,1036.81 -572.61,0 -1036.83,-464.18 -1036.83,-1036.81 0,-572.63 464.21,-1036.84 1036.83,-1036.84 572.63,0 1036.83,464.2 1036.83,1036.84z"/>
   <path class="fil7" d="M18269.55 1685.82c0,0 161.55,240.9 108.19,1177.11 -53.33,936.2 -377.59,1602.36 -1053.6,1980.43 -676.03,378.07 -980.25,1256.43 -678.29,2223.76l-1764.14 -796.46c0,0 -248.01,-1127.68 672.77,-1653.76 920.82,-526.11 1977.21,-1134.02 2715.07,-2931.09z"/>
   <path class="fil13" d="M18152.31 1568.57c0,0 161.53,240.91 108.18,1177.11 -53.34,936.22 -377.58,1602.37 -1053.61,1980.44 -676.03,378.05 -980.23,1256.41 -678.29,2223.76l-1764.14 -796.48c0,0 -248.01,-1127.68 672.78,-1653.76 920.8,-526.11 1977.22,-1134 2715.08,-2931.08z"/>
   <path class="fil13" d="M6183.18 9288.54l49.41 0c591.15,0 1070.38,479.21 1070.38,1070.38l0 3041.52 -2190.16 0 0 -3041.52c0,-591.17 479.22,-1070.38 1070.37,-1070.38z"/>
   <path class="fil14" d="M6283.8 9292.37c-25.19,-1.74 -50.29,-3.84 -75.91,-3.84 -604.79,0 -1095.07,490.29 -1095.07,1095.08l0 3016.81 151.84 0 0 -3016.81c0,-579.17 449.93,-1052.11 1019.15,-1091.25z"/>
   <path class="fil15" d="M6207.89 9288.54c-40.93,0 -81.2,2.66 -120.97,7.03 547.81,60.26 974.12,524.19 974.12,1088.05l0 3016.81 241.93 0 0 -3016.81c0,-604.79 -490.28,-1095.08 -1095.08,-1095.08z"/>
   <path class="fil16" d="M6713.59 10559.48c0,-279.28 -226.41,-505.68 -505.7,-505.68 -279.28,0 -505.68,226.4 -505.68,505.68 0,279.3 226.4,505.68 505.68,505.68 279.29,0 505.7,-226.38 505.7,-505.68z"/>
   <path class="fil17" d="M6585.39 10559.48c0,-208.47 -169.02,-377.48 -377.5,-377.48 -208.47,0 -377.48,169.01 -377.48,377.48 0,208.48 169.01,377.48 377.48,377.48 208.48,0 377.5,-169 377.5,-377.48z"/>
   <path class="fil16" d="M6906.81 12176.82c0,-385.99 -312.91,-698.9 -698.92,-698.9 -385.99,0 -698.91,312.91 -698.91,698.9 0,385.99 312.92,698.91 698.91,698.91 386.01,0 698.92,-312.92 698.92,-698.91z"/>
   <path class="fil17" d="M6790.98 12176.82c0,-322.03 -261.06,-583.07 -583.09,-583.07 -322.02,0 -583.08,261.04 -583.08,583.07 0,322.03 261.06,583.08 583.08,583.08 322.03,0 583.09,-261.05 583.09,-583.08z"/>
   <path class="fil13" d="M19432.32 9288.54l16.79 0c600.15,0 1086.67,486.53 1086.67,1086.68l0 3025.22 -2190.16 0 0 -3025.22c0,-600.16 486.53,-1086.68 1086.69,-1086.68z"/>
   <path class="fil14" d="M19516.64 9292.37c-25.19,-1.74 -50.29,-3.84 -75.92,-3.84 -604.79,0 -1095.08,490.29 -1095.08,1095.08l0 3016.81 151.84 0 0 -3016.81c0,-579.17 449.93,-1052.11 1019.17,-1091.25z"/>
   <path class="fil15" d="M19440.71 9288.54c-40.93,0 -81.21,2.66 -120.95,7.03 547.79,60.26 974.1,524.19 974.1,1088.05l0 3016.81 241.93 0 0 -3016.81c0,-604.79 -490.28,-1095.08 -1095.07,-1095.08z"/>
   <path class="fil16" d="M19946.39 10559.48c0,-279.28 -226.4,-505.68 -505.68,-505.68 -279.29,0 -505.68,226.4 -505.68,505.68 0,279.3 226.39,505.68 505.68,505.68 279.28,0 505.68,-226.38 505.68,-505.68z"/>
   <path class="fil17" d="M19818.2 10559.48c0,-208.47 -169.01,-377.48 -377.48,-377.48 -208.48,0 -377.48,169.01 -377.48,377.48 0,208.48 169,377.48 377.48,377.48 208.47,0 377.48,-169 377.48,-377.48z"/>
   <path class="fil16" d="M20139.63 12176.82c0,-385.99 -312.92,-698.9 -698.91,-698.9 -386.01,0 -698.9,312.91 -698.9,698.9 0,385.99 312.89,698.91 698.9,698.91 385.99,0 698.91,-312.92 698.91,-698.91z"/>
   <path class="fil17" d="M20023.8 12176.82c0,-322.03 -261.06,-583.07 -583.08,-583.07 -322.03,0 -583.09,261.04 -583.09,583.07 0,322.03 261.06,583.08 583.09,583.08 322.02,0 583.08,-261.05 583.08,-583.08z"/>
   <path class="fil11" d="M20830.95 17229.54l-205.35 48.27c-382.06,89.87 -764.63,-147.03 -854.48,-529.11l-262.21 -1115.05c-89.85,-382.07 147.04,-764.64 529.12,-854.49l205.34 -48.3c382.07,-89.83 764.64,147.06 854.49,529.12l262.2 1115.07c89.86,382.08 -147.03,764.63 -529.11,854.49z"/>
   <path class="fil10" d="M21263.37 15963.81l-157.86 -671.24c0,-0.02 -0.01,-0.04 -0.01,-0.06l157.87 671.31z"/>
   <path class="fil10" d="M21352.41 16342.47l-39.92 -169.81c94.05,400.05 -153.99,800.64 -554.05,894.72l-140.2 32.96c-400.05,94.08 -800.63,-153.98 -894.72,-554.03l39.93 169.81c94.08,400.07 494.66,648.11 894.72,554.03l140.21 -32.98c400.07,-94.08 648.11,-494.64 554.03,-894.7z"/>
   <polygon class="fil8" points="17469.92,12802.33 17906.03,12802.33 17980.78,12976.77 17523.58,12976.77 "/>
   <path class="fil7" d="M11075.4 815.17c-1409.59,0 -2552.3,1078.64 -2552.3,2409.2 0,934.23 563.7,1743.63 1387.22,2143.33 0.01,0.03 207.65,396.1 326.13,797.47 118.47,401.38 296.17,-398.3 621.98,-531.58 6.59,-2.69 11.48,-5.39 16.77,-8.08 66.13,4.86 132.75,8.08 200.2,8.08 1409.61,0 2552.33,-1078.64 2552.33,-2409.22 0,-1330.55 -1142.72,-2409.2 -2552.33,-2409.2z"/>
   <path class="fil18" d="M10945.21 684.96c-1409.61,0 -2552.32,1078.65 -2552.32,2409.22 0,934.21 563.72,1743.63 1387.24,2143.32 0,0.02 207.65,396.11 326.11,797.47 118.49,401.39 296.19,-398.31 621.99,-531.59 6.58,-2.69 11.48,-5.39 16.78,-8.07 66.13,4.85 132.75,8.07 200.2,8.07 1409.61,0 2552.32,-1078.64 2552.32,-2409.2 0,-1330.56 -1142.71,-2409.22 -2552.32,-2409.22z"/>
   <path class="fil1" d="M12382.74 2208.77l-357.49 522.17 0 -451.87c0,-72.84 -59.05,-131.91 -131.91,-131.91l-2519.06 0c-72.84,0 -131.89,59.07 -131.89,131.91l0 1630.9c0,72.85 59.05,131.91 131.89,131.91l2519.06 0c72.86,0 131.91,-59.06 131.91,-131.91l0 -386.18 357.15 462.98c26.82,34.75 68.22,55.11 112.12,55.11l158.85 0c78.21,0 141.61,-63.39 141.61,-141.59l0 -1611.52c0,-78.2 -63.4,-141.6 -141.61,-141.6l-153.79 0c-46.73,0 -90.44,23.04 -116.84,61.61z"/>
   <path class="fil7" d="M6173.5 14784.59l-3487.54 0c-86.9,0 -157.34,-70.45 -157.34,-157.33l0 -2231.47c0,-86.9 70.44,-157.34 157.34,-157.34l3487.54 0c86.9,0 157.34,70.44 157.34,157.34l0 2231.47c0,86.88 -70.44,157.33 -157.34,157.33z"/>
   <path class="fil11" d="M3519.42 12409.72l-728.58 0 0 -317.72c0,-41.81 33.9,-75.73 75.73,-75.73l577.14 0c41.81,0 75.71,33.92 75.71,75.73l0 317.72z"/>
   <path class="fil19" d="M3418.42 12016.27l-173.65 0c55.79,0 101,45.23 101,101.01l0 292.42 173.65 0 0 -292.42c0,-55.78 -45.21,-101.01 -101,-101.01z"/>
   <path class="fil11" d="M3948.11 12409.72l-393.44 0 0 -317.72c0,-41.81 33.91,-75.73 75.72,-75.73l241.98 0c41.84,0 75.73,33.92 75.73,75.73l0 317.72z"/>
   <path class="fil19" d="M3847.11 12016.27l-111.25 0c55.78,0 101.01,45.23 101.01,101.01l0 292.42 111.24 0 0 -292.42c0,-55.78 -45.23,-101.01 -101,-101.01z"/>
   <path class="fil18" d="M6043.32 14784.59l-3487.56 0c-86.88,0 -157.33,-70.45 -157.33,-157.33l0 -2231.47c0,-86.9 70.45,-157.34 157.33,-157.34l3487.56 0c86.88,0 157.33,70.44 157.33,157.34l0 2231.47c0,86.88 -70.45,157.33 -157.33,157.33z"/>
   <path class="fil20" d="M5990.81 12238.45l-1055.95 0c32.05,36.86 52.11,84.39 52.11,137.06 0,1290.3 -1045.98,2336.28 -2336.28,2336.28l-200.15 0c38.46,44.23 94.49,72.78 157.71,72.78l3382.56 0c115.9,0 209.83,-93.93 209.83,-209.82l0 -2126.46c0,-115.9 -93.94,-209.84 -209.83,-209.84z"/>
   <polygon class="fil1" points="5878.14,12798.61 5148.25,12798.61 5148.25,12510.03 5878.14,12510.03 "/>
   <path class="fil11" d="M4970.01 13511.52c0,-520.3 -421.78,-942.07 -942.05,-942.07 -520.29,0 -942.07,421.77 -942.07,942.07 0,520.28 421.78,942.07 942.07,942.07 520.28,0 942.05,-421.79 942.05,-942.07z"/>
   <path class="fil19" d="M4368.61 12633.95c304.11,156.24 512.54,472.37 512.54,837.78 0,520.29 -421.78,942.07 -942.04,942.07 -120.32,0 -234.95,-23.42 -340.73,-64.53 128.89,66.25 274.66,104.33 429.58,104.33 520.28,0 942.05,-421.79 942.05,-942.07 0,-400 -249.7,-740.91 -601.4,-877.58z"/>
   <path class="fil0" d="M4686.43 13511.52c0,-363.69 -294.81,-658.48 -658.48,-658.48 -363.68,0 -658.48,294.79 -658.48,658.48 0,363.67 294.8,658.48 658.48,658.48 363.67,0 658.48,-294.81 658.48,-658.48z"/>
   <path class="fil21" d="M4642.11 13280.84l-844.84 844.84c12.2,4.57 23.67,10.55 36.21,14.43l823.06 -823.05c-3.88,-12.54 -9.86,-24.02 -14.43,-36.22z"/>
   <path class="fil21" d="M3387.97 13655.87c3.45,14.67 5.79,29.8 10.2,44.06l818.19 -818.19c-14.28,-4.41 -29.4,-6.75 -44.07,-10.2l-784.32 784.33z"/>
   <path class="fil21" d="M3531.98 13938.76c43.53,49.62 93.54,93.52 150.03,128.52l901.72 -901.7c-35.01,-56.51 -78.91,-106.49 -128.53,-150.05l-923.21 923.23z"/>
   <path class="fil21" d="M4683.29 13449.48l-717.38 717.38c20.43,1.92 41.1,3.14 62.04,3.14 12.85,0 25.37,-1.2 38.03,-1.92l618.53 -618.53c0.72,-12.66 1.92,-25.19 1.92,-38.03 0,-20.94 -1.22,-41.61 -3.14,-62.04z"/>
   <path class="fil8" d="M5757.27 14027.19c0,-284.79 -230.87,-515.66 -515.67,-515.66 -284.79,0 -515.68,230.87 -515.68,515.66 0,284.8 230.89,515.68 515.68,515.68 284.8,0 515.67,-230.88 515.67,-515.68z"/>
   <path class="fil19" d="M5483.11 13571.68c130.78,93.54 216.28,246.3 216.28,419.34 0,284.79 -230.88,515.66 -515.68,515.66 -87.28,0 -169.42,-21.87 -241.5,-60.16 84.46,60.42 187.64,96.34 299.39,96.34 284.8,0 515.67,-230.88 515.67,-515.68 0,-197.49 -111.13,-368.88 -274.16,-455.51z"/>
   <path class="fil0" d="M5602.04 14027.19c0,-199.06 -161.38,-360.43 -360.44,-360.43 -199.07,0 -360.45,161.37 -360.45,360.43 0,199.08 161.38,360.45 360.45,360.45 199.06,0 360.44,-161.37 360.44,-360.45z"/>
   <path class="fil21" d="M4914.94 14172.91c13.13,28.02 28.73,54.66 48.29,78.32l502.42 -502.41c-23.68,-19.54 -50.33,-35.15 -78.32,-48.3l-472.39 472.39z"/>
   <path class="fil21" d="M5003.37 14294.3c7.08,6.22 14.08,12.51 21.63,18.16l501.87 -501.86c-5.66,-7.56 -11.95,-14.56 -18.15,-21.64l-505.35 505.34z"/>
   <path class="fil21" d="M5134.74 14369.15c23.13,7.15 47.02,12.51 71.86,14.95l391.91 -391.91c-2.43,-24.83 -7.8,-48.72 -14.96,-71.86l-448.81 448.82z"/>
   <polygon class="fil22" points="13052.26,11216.76 9058.16,11216.76 9058.16,8431.9 13052.26,8431.9 "/>
   <polygon class="fil22" points="16509.99,11860.67 9058.16,11860.67 9058.16,11593.75 16509.99,11593.75 "/>
   <polygon class="fil18" points="12496.91,11860.67 9058.16,11860.67 9058.16,11593.75 12496.91,11593.75 "/>
   <polygon class="fil22" points="9058.16,11216.76 11010.32,6285.37 17021.34,9824.33 13052.26,11216.76 "/>
   <path class="fil23" d="M17726.28 9864.69l-6423.01 0c-161.8,0 -292.95,-131.15 -292.95,-292.95l0 -3370.22c0,-161.78 131.15,-292.95 292.95,-292.95l6423.01 0c161.78,0 292.95,131.17 292.95,292.95l0 3370.22c0,161.8 -131.17,292.95 -292.95,292.95z"/>
   <polygon class="fil22" points="18019.23,9487.9 11010.32,9487.9 11010.32,6285.37 18019.23,6285.37 "/>
   <polygon class="fil24" points="18019.23,9487.9 11010.32,9487.9 11010.32,8982.79 18019.23,8982.79 "/>
   <polygon class="fil24" points="18019.23,6870.35 11010.32,6870.35 11010.32,6285.37 18019.23,6285.37 "/>
   <path class="fil23" d="M11712.02 6707.86l-359.12 0c-39.71,0 -71.9,-32.18 -71.9,-71.89l0 -116.22c0,-39.7 32.19,-71.88 71.9,-71.88l359.12 0c39.7,0 71.88,32.18 71.88,71.88l0 116.23c0,39.7 -32.18,71.88 -71.88,71.88z"/>
   <path class="fil23" d="M12550.17 6707.86l-359.12 0c-39.72,0 -71.88,-32.18 -71.88,-71.89l0 -116.22c0,-39.7 32.16,-71.88 71.88,-71.88l359.12 0c39.69,0 71.88,32.18 71.88,71.88l0 116.23c0,39.7 -32.19,71.88 -71.88,71.88z"/>
   <path class="fil23" d="M13388.3 6707.86l-359.12 0c-39.7,0 -71.88,-32.18 -71.88,-71.88l0 -116.23c0,-39.7 32.18,-71.88 71.88,-71.88l359.12 0c39.7,0 71.88,32.18 71.88,71.88l0 116.23c0,39.7 -32.18,71.88 -71.88,71.88z"/>
   <path class="fil23" d="M14226.45 6707.86l-359.12 0c-39.7,0 -71.88,-32.18 -71.88,-71.89l0 -116.22c0,-39.7 32.18,-71.88 71.88,-71.88l359.12 0c39.69,0 71.88,32.18 71.88,71.88l0 116.23c0,39.7 -32.19,71.88 -71.88,71.88z"/>
   <path class="fil23" d="M15064.58 6707.86l-359.12 0c-39.7,0 -71.88,-32.18 -71.88,-71.88l0 -116.23c0,-39.7 32.18,-71.88 71.88,-71.88l359.12 0c39.7,0 71.88,32.18 71.88,71.88l0 116.23c0,39.7 -32.18,71.88 -71.88,71.88z"/>
   <path class="fil23" d="M15902.73 6707.86l-359.12 0c-39.7,0 -71.88,-32.18 -71.88,-71.88l0 -116.23c0,-39.7 32.18,-71.88 71.88,-71.88l359.12 0c39.71,0 71.88,32.18 71.88,71.88l0 116.23c0,39.7 -32.17,71.88 -71.88,71.88z"/>
   <path class="fil23" d="M16740.86 6707.86l-359.12 0c-39.7,0 -71.88,-32.18 -71.88,-71.89l0 -116.22c0,-39.7 32.18,-71.88 71.88,-71.88l359.12 0c39.72,0 71.88,32.18 71.88,71.88l0 116.23c0,39.7 -32.16,71.88 -71.88,71.88z"/>
   <path class="fil23" d="M17579.01 6707.86l-359.12 0c-39.71,0 -71.89,-32.18 -71.89,-71.88l0 -116.23c0,-39.7 32.2,-71.88 71.89,-71.88l359.11 0c39.71,0 71.89,32.18 71.89,71.88l0 116.23c0,39.7 -32.18,71.88 -71.88,71.88z"/>
   <path class="fil23" d="M11712.02 9365.36l-359.12 0c-39.71,0 -71.9,-32.18 -71.9,-71.9l0 -116.23c0,-39.68 32.19,-71.88 71.88,-71.88l359.14 0c39.7,0 71.88,32.2 71.88,71.88l0 116.23c0,39.72 -32.18,71.9 -71.88,71.9z"/>
   <path class="fil23" d="M12550.17 9365.36l-359.12 0c-39.72,0 -71.88,-32.18 -71.88,-71.9l0 -116.23c0,-39.68 32.16,-71.88 71.88,-71.88l359.12 0c39.69,0 71.88,32.2 71.88,71.88l0 116.23c0,39.72 -32.19,71.9 -71.88,71.9z"/>
   <path class="fil23" d="M13388.3 9365.36l-359.12 0c-39.7,0 -71.88,-32.18 -71.88,-71.9l0 -116.23c0,-39.68 32.18,-71.88 71.88,-71.88l359.12 0c39.7,0 71.88,32.2 71.88,71.88l0 116.25c0,39.7 -32.18,71.88 -71.88,71.88z"/>
   <path class="fil23" d="M14226.45 9365.36l-359.12 0c-39.7,0 -71.88,-32.18 -71.88,-71.9l0 -116.23c0,-39.68 32.18,-71.88 71.88,-71.88l359.12 0c39.69,0 71.88,32.2 71.88,71.88l0 116.23c0,39.72 -32.19,71.9 -71.88,71.9z"/>
   <path class="fil23" d="M15064.58 9365.36l-359.12 0c-39.7,0 -71.88,-32.18 -71.88,-71.9l0 -116.23c0,-39.68 32.18,-71.88 71.88,-71.88l359.12 0c39.7,0 71.88,32.2 71.88,71.88l0 116.23c0,39.72 -32.18,71.9 -71.88,71.9z"/>
   <path class="fil23" d="M15902.73 9365.36l-359.12 0c-39.7,0 -71.88,-32.18 -71.88,-71.9l0 -116.23c0,-39.68 32.18,-71.88 71.88,-71.88l359.12 0c39.71,0 71.88,32.2 71.88,71.88l0 116.23c0,39.72 -32.19,71.9 -71.88,71.9z"/>
   <path class="fil23" d="M16740.86 9365.36l-359.12 0c-39.7,0 -71.88,-32.18 -71.88,-71.9l0 -116.23c0,-39.68 32.18,-71.88 71.88,-71.88l359.12 0c39.72,0 71.88,32.2 71.88,71.88l0 116.23c0,39.72 -32.16,71.9 -71.88,71.9z"/>
   <path class="fil23" d="M17579 9365.36l-359.11 0c-39.71,0 -71.89,-32.18 -71.89,-71.88l0 -116.25c0,-39.68 32.18,-71.88 71.89,-71.88l359.11 0c39.71,0 71.89,32.2 71.89,71.89l0 116.22c0,39.72 -32.18,71.9 -71.89,71.9z"/>
   <polygon class="fil24" points="13285.15,8982.79 13144.32,8982.79 13144.32,6870.35 13285.15,6870.35 "/>
   <polygon class="fil24" points="15863.99,8982.79 15723.16,8982.79 15723.16,6870.35 15863.99,6870.35 "/>
   <path class="fil1" d="M14166.45 7494.76l0 783.78c0,82.67 94.02,130.21 160.6,81.24l494.95 -364.15c52.44,-38.58 55.12,-116.03 5.46,-158.14l-494.94 -419.64c-65.53,-55.54 -166.07,-8.97 -166.07,76.92z"/>
   <path class="fil18" d="M17856.22 628.04c0,-197.75 -160.3,-358.06 -358.05,-358.06 -197.75,0 -358.06,160.3 -358.06,358.06 0,197.74 160.3,358.03 358.06,358.03 197.74,0 358.05,-160.28 358.05,-358.03z"/>
   <path class="fil18" d="M25993.7 6356.81c0,-197.74 -160.31,-358.05 -358.06,-358.05 -197.74,0 -358.04,160.3 -358.04,358.05 0,197.75 160.29,358.06 358.04,358.06 197.74,0 358.06,-160.3 358.06,-358.06z"/>
   <path class="fil18" d="M24919.56 8653.49c0,-431.42 -349.77,-781.17 -781.21,-781.17 -431.44,0 -781.19,349.75 -781.19,781.17 0,431.44 349.75,781.19 781.19,781.19 431.44,0 781.21,-349.75 781.21,-781.19z"/>
   <path class="fil10" d="M8566.05 13663.49c695.84,-21.95 1391.69,-28.61 2087.56,-23.72 347.92,4.1 695.84,14.8 1043.76,15.71 347.93,3.34 695.87,-1.28 1043.78,-6.55 695.84,-11.85 1391.71,-17.89 2087.56,-15.75 695.84,0.96 1391.71,10.17 2087.55,30.3l0 6.51c-695.83,20.15 -1391.7,29.33 -2087.55,30.32 -695.84,2.14 -1391.71,-3.91 -2087.56,-15.74 -347.92,-5.28 -695.86,-9.91 -1043.78,-6.57 -347.92,0.92 -695.84,11.61 -1043.76,15.7 -695.87,4.89 -1391.71,-1.75 -2087.56,-23.71l0 -6.51z"/>
   <path class="fil10" d="M8566.05 14023.94c695.84,-21.96 1391.69,-28.62 2087.56,-23.72 347.92,4.1 695.84,14.79 1043.76,15.68 347.93,3.34 695.87,-1.26 1043.78,-6.55 695.84,-11.83 1391.71,-17.88 2087.56,-15.74 695.84,0.97 1391.71,10.16 2087.55,30.32l0 6.51c-695.83,20.13 -1391.7,29.35 -2087.55,30.3 -695.84,2.14 -1391.71,-3.9 -2087.56,-15.75 -347.92,-5.27 -695.86,-9.89 -1043.78,-6.55 -347.92,0.91 -695.84,11.61 -1043.76,15.68 -695.87,4.91 -1391.71,-1.75 -2087.56,-23.7l0 -6.51z"/>
   <path class="fil10" d="M8407.01 14380.85c722.37,-21.96 1444.71,-28.62 2167.06,-23.72 361.18,4.1 722.37,14.79 1083.53,15.71 361.2,3.32 722.37,-1.29 1083.55,-6.57 722.37,-11.83 1444.73,-17.88 2167.09,-15.74 722.37,0.98 1444.71,10.16 2167.07,30.32l0 6.51c-722.37,20.13 -1444.71,29.32 -2167.07,30.3 -722.35,2.14 -1444.72,-3.9 -2167.09,-15.75 -361.19,-5.27 -722.35,-9.89 -1083.55,-6.55 -361.17,0.91 -722.35,11.61 -1083.53,15.71 -722.35,4.89 -1444.7,-1.77 -2167.06,-23.72l0 -6.51z"/>
   <path class="fil10" d="M9344.25 13454.94c1.76,38.88 -5.85,75.02 -15.62,110.5 -10.98,35.14 -24.21,69.61 -46.85,101.32 -1.81,-38.92 5.79,-75.05 15.64,-110.5 11.04,-35.14 24.26,-69.59 46.83,-101.32z"/>
   <path class="fil10" d="M9089.4 13741.07c1.73,38.87 -5.85,75.01 -15.65,110.5 -10.96,35.13 -24.19,69.6 -46.83,101.31 -1.83,-38.92 5.78,-75.03 15.64,-110.5 11.04,-35.12 24.28,-69.59 46.84,-101.31z"/>
   <path class="fil10" d="M9752.38 13741.07c1.73,38.87 -5.87,75.01 -15.65,110.5 -10.96,35.13 -24.19,69.6 -46.83,101.31 -1.83,-38.92 5.78,-75.03 15.63,-110.5 11.05,-35.12 24.29,-69.59 46.85,-101.31z"/>
   <path class="fil10" d="M9212.46 14099.75c1.75,38.88 -5.85,75.01 -15.63,110.5 -10.98,35.13 -24.21,69.61 -46.85,101.31 -1.8,-38.92 5.8,-75.05 15.65,-110.52 11.04,-35.11 24.26,-69.58 46.83,-101.29z"/>
   <path class="fil10" d="M10054.89 14099.75c1.73,38.88 -5.85,75.01 -15.65,110.5 -10.96,35.13 -24.19,69.61 -46.83,101.31 -1.81,-38.92 5.78,-75.05 15.63,-110.52 11.05,-35.11 24.29,-69.58 46.85,-101.29z"/>
   <path class="fil10" d="M10727.59 14137.67c1.74,38.87 -5.85,75.01 -15.63,110.5 -10.97,35.13 -24.21,69.6 -46.85,101.29 -1.82,-38.9 5.8,-75.03 15.65,-110.5 11.04,-35.12 24.26,-69.59 46.83,-101.29z"/>
   <path class="fil10" d="M11408.08 14099.75c1.73,38.88 -5.85,75.01 -15.65,110.5 -10.96,35.13 -24.19,69.61 -46.83,101.31 -1.83,-38.92 5.78,-75.05 15.64,-110.52 11.04,-35.11 24.26,-69.58 46.84,-101.29z"/>
   <path class="fil10" d="M12081.57 14099.75c1.76,38.88 -5.85,75.01 -15.62,110.5 -10.98,35.13 -24.2,69.61 -46.85,101.31 -1.81,-38.92 5.79,-75.05 15.64,-110.52 11.04,-35.11 24.29,-69.58 46.83,-101.29z"/>
   <path class="fil10" d="M12772.4 14099.75c1.74,38.88 -5.85,75.01 -15.64,110.5 -10.96,35.13 -24.2,69.61 -46.84,101.31 -1.82,-38.92 5.78,-75.05 15.65,-110.52 11.04,-35.11 24.26,-69.58 46.83,-101.29z"/>
   <path class="fil10" d="M13497.67 14099.75c1.74,38.88 -5.84,75.01 -15.64,110.5 -10.96,35.13 -24.19,69.61 -46.85,101.31 -1.81,-38.92 5.8,-75.05 15.65,-110.52 11.03,-35.11 24.28,-69.58 46.84,-101.29z"/>
   <path class="fil10" d="M14318.6 14099.75c1.73,38.88 -5.87,75.01 -15.65,110.5 -10.96,35.13 -24.19,69.61 -46.85,101.31 -1.81,-38.92 5.8,-75.05 15.65,-110.52 11.04,-35.11 24.29,-69.58 46.85,-101.29z"/>
   <path class="fil10" d="M15029.21 14099.75c1.74,38.88 -5.85,75.01 -15.63,110.5 -10.97,35.13 -24.21,69.61 -46.85,101.31 -1.8,-38.92 5.8,-75.05 15.65,-110.52 11.04,-35.11 24.26,-69.58 46.83,-101.29z"/>
   <path class="fil10" d="M15739.83 14099.75c1.74,38.88 -5.85,75.01 -15.64,110.5 -10.96,35.13 -24.19,69.61 -46.83,101.31 -1.83,-38.92 5.77,-75.05 15.62,-110.52 11.06,-35.11 24.29,-69.58 46.85,-101.29z"/>
   <path class="fil10" d="M16450.44 14099.75c1.75,38.88 -5.85,75.01 -15.63,110.5 -10.98,35.13 -24.19,69.61 -46.85,101.31 -1.81,-38.92 5.8,-75.05 15.65,-110.52 11.04,-35.11 24.29,-69.58 46.83,-101.29z"/>
   <path class="fil10" d="M10415.34 13741.07c1.73,38.87 -5.85,75.01 -15.63,110.5 -10.98,35.13 -24.19,69.6 -46.85,101.31 -1.81,-38.92 5.8,-75.03 15.65,-110.5 11.03,-35.12 24.28,-69.59 46.83,-101.31z"/>
   <path class="fil10" d="M11078.32 13741.07c1.73,38.87 -5.85,75.01 -15.65,110.5 -10.96,35.13 -24.19,69.6 -46.83,101.31 -1.82,-38.92 5.78,-75.03 15.65,-110.5 11.03,-35.12 24.26,-69.59 46.83,-101.31z"/>
   <path class="fil10" d="M11741.3 13741.07c1.73,38.87 -5.85,75.01 -15.65,110.5 -10.96,35.13 -24.19,69.6 -46.83,101.31 -1.82,-38.92 5.78,-75.03 15.63,-110.5 11.05,-35.12 24.29,-69.59 46.85,-101.31z"/>
   <path class="fil10" d="M12404.27 13741.07c1.73,38.87 -5.87,75.01 -15.65,110.5 -10.98,35.13 -24.19,69.6 -46.85,101.31 -1.8,-38.92 5.8,-75.03 15.65,-110.5 11.04,-35.12 24.26,-69.59 46.85,-101.31z"/>
   <path class="fil10" d="M13067.23 13741.07c1.74,38.87 -5.85,75.01 -15.65,110.5 -10.96,35.13 -24.19,69.6 -46.83,101.31 -1.82,-38.92 5.78,-75.03 15.65,-110.5 11.04,-35.12 24.26,-69.59 46.83,-101.31z"/>
   <path class="fil10" d="M13843.7 13741.07c1.73,38.87 -5.87,75.01 -15.65,110.5 -10.98,35.13 -24.19,69.6 -46.83,101.31 -1.82,-38.92 5.78,-75.03 15.63,-110.5 11.04,-35.12 24.29,-69.59 46.85,-101.31z"/>
   <path class="fil10" d="M14528.62 13741.07c1.74,38.87 -5.85,75.01 -15.64,110.5 -10.96,35.13 -24.2,69.6 -46.84,101.31 -1.82,-38.92 5.78,-75.03 15.63,-110.5 11.06,-35.12 24.29,-69.59 46.85,-101.31z"/>
   <path class="fil10" d="M15327.02 13741.07c1.74,38.87 -5.85,75.01 -15.64,110.5 -10.96,35.13 -24.19,69.6 -46.83,101.31 -1.83,-38.92 5.78,-75.03 15.64,-110.5 11.04,-35.12 24.26,-69.59 46.83,-101.31z"/>
   <path class="fil10" d="M16215.12 13741.07c1.74,38.87 -5.85,75.01 -15.65,110.5 -10.95,35.13 -24.19,69.6 -46.83,101.31 -1.82,-38.92 5.78,-75.03 15.63,-110.5 11.06,-35.12 24.29,-69.59 46.85,-101.31z"/>
   <path class="fil10" d="M16634.84 13741.07c1.76,38.87 -5.84,75.01 -15.62,110.5 -10.98,35.13 -24.21,69.6 -46.85,101.31 -1.81,-38.92 5.79,-75.03 15.64,-110.5 11.04,-35.12 24.26,-69.59 46.83,-101.31z"/>
   <path class="fil10" d="M10054.89 13454.94c1.73,38.88 -5.85,75.02 -15.65,110.5 -10.96,35.14 -24.19,69.61 -46.83,101.32 -1.81,-38.92 5.78,-75.05 15.63,-110.5 11.05,-35.14 24.29,-69.59 46.85,-101.32z"/>
   <path class="fil10" d="M10765.49 13454.94c1.75,38.88 -5.85,75.02 -15.63,110.5 -10.97,35.14 -24.19,69.61 -46.85,101.32 -1.8,-38.92 5.8,-75.05 15.65,-110.5 11.06,-35.14 24.29,-69.59 46.83,-101.32z"/>
   <path class="fil10" d="M11476.11 13454.94c1.76,38.88 -5.85,75.02 -15.62,110.5 -10.98,35.14 -24.21,69.61 -46.85,101.32 -1.81,-38.92 5.79,-75.05 15.64,-110.5 11.04,-35.14 24.26,-69.59 46.83,-101.32z"/>
   <path class="fil10" d="M12186.75 13454.94c1.73,38.88 -5.85,75.02 -15.65,110.5 -10.96,35.14 -24.19,69.61 -46.83,101.32 -1.83,-38.92 5.78,-75.05 15.63,-110.5 11.05,-35.14 24.29,-69.59 46.85,-101.32z"/>
   <path class="fil10" d="M12897.35 13454.94c1.75,38.88 -5.85,75.02 -15.63,110.5 -10.97,35.14 -24.19,69.61 -46.85,101.32 -1.8,-38.92 5.8,-75.05 15.65,-110.5 11.04,-35.14 24.29,-69.59 46.83,-101.32z"/>
   <path class="fil10" d="M13607.97 13454.94c1.74,38.88 -5.85,75.02 -15.62,110.5 -10.98,35.14 -24.21,69.61 -46.85,101.32 -1.83,-38.92 5.79,-75.05 15.64,-110.5 11.04,-35.14 24.26,-69.59 46.83,-101.32z"/>
   <path class="fil10" d="M14318.6 13454.94c1.73,38.88 -5.87,75.02 -15.65,110.5 -10.96,35.14 -24.19,69.61 -46.85,101.32 -1.81,-38.92 5.8,-75.05 15.65,-110.5 11.04,-35.14 24.29,-69.59 46.85,-101.32z"/>
   <path class="fil10" d="M15029.21 13454.94c1.74,38.88 -5.85,75.02 -15.63,110.5 -10.97,35.14 -24.21,69.61 -46.85,101.32 -1.8,-38.92 5.8,-75.05 15.65,-110.5 11.04,-35.14 24.26,-69.59 46.83,-101.32z"/>
   <path class="fil10" d="M15739.83 13454.94c1.74,38.88 -5.85,75.02 -15.64,110.5 -10.96,35.14 -24.19,69.61 -46.83,101.32 -1.83,-38.92 5.77,-75.05 15.62,-110.5 11.06,-35.14 24.29,-69.59 46.85,-101.32z"/>
   <path class="fil10" d="M16450.44 13454.94c1.75,38.88 -5.85,75.02 -15.63,110.5 -10.98,35.14 -24.19,69.61 -46.85,101.32 -1.81,-38.92 5.8,-75.05 15.65,-110.5 11.04,-35.14 24.29,-69.59 46.83,-101.32z"/>
   <path class="fil10" d="M11118.61 14565.14l-56.57 349.8 -14.95 -18.22c270.01,-6.13 540.04,-10.96 810.05,-12 270.02,-2.9 540.03,-1.96 810.06,4.13 270.01,5.9 540.04,12.07 810.07,12.93 270.01,0.42 540.04,-3.03 810.05,-8.7l-18.78 20.56 -37.66 -348.77 25.2 23.06 -779.44 7.1c-259.1,2.85 -519.26,-0.59 -779.21,-1.36 -259.83,-1.05 -522,-6.95 -784.11,-10.32l-794.72 -18.24zm-4.11 -5.04l0 0 775.05 -18.21c261.16,-3.39 522.23,-9.25 785.67,-10.33 263.3,-0.76 526.38,-4.21 790.53,-1.35l790.34 7.1 23.6 0.22 1.62 22.85 24.82 349.89 1.5 21.01 -20.3 -0.43c-270.01,-5.66 -540.04,-9.11 -810.05,-8.71 -270.03,0.86 -540.06,7.05 -810.07,12.93 -270.03,6.11 -540.04,7.05 -810.06,4.15 -270.01,-1.05 -540.04,-5.87 -810.05,-12l-19.19 -0.44 4.21 -17.8 82.4 -348.89z"/>
  </g>
 </g>
</svg>
